<?xml version="1.0" encoding="UTF-8"?>
<svg id="favicon-thick-lines" xmlns="http://www.w3.org/2000/svg" viewBox="0 0 400 400">
  <defs>
    <style>
      .cls-1, .cls-2, .cls-3 {
        fill: none;
        stroke: #fff;
        stroke-miterlimit: 10;
      }

      .cls-1, .cls-3 {
        stroke-width: 6px;
      }

      .cls-2 {
        stroke-width: 15px;
      }

      .cls-4 {
        fill: #fff;
      }

      .cls-3 {
        stroke-dasharray: 0 0 12.22 12.22;
      }
    </style>
  </defs>
  <g id="hexagon">
    <g id="polygon">
      <polygon id="polygon-big-outer" class="cls-2" points="338 279.674 338 120.326 200 40.65 62 120.326 62 279.674 200 359.35 338 279.674"/>
      <polygon id="polygon-big-inner" class="cls-1" points="336.327 278.708 336.327 121.292 200 42.582 63.673 121.292 63.673 278.708 200 357.418 336.327 278.708"/>
      <polygon id="polygon-small-bottom" class="cls-1" points="267.886 317.702 267.886 239.313 199.998 200.119 132.114 239.313 132.114 317.702 199.998 356.896 267.886 317.702"/>
      <polygon id="polygon-small-top" class="cls-1" points="267.888 160.271 267.888 81.882 200 42.688 132.112 81.882 132.112 160.271 200 199.465 267.888 160.271"/>
    </g>
    <g id="sand">
      <g id="sand-bottom">
        <path class="cls-4" d="m149.677,314.111l3.11-2.369,7.679-5.849c3.262-2.485,6.524-4.969,9.786-7.454,3.144-2.394,6.287-4.789,9.431-7.183,2.204-1.679,4.389-3.387,6.614-5.038,2.351-1.745,4.635-3.589,7.334-4.774,1.988-.872,4.112-1.465,6.283-1.618,2.87-.202,5.707.553,8.233,1.946,1.666.919,3.118,2.147,4.619,3.307,2.897,2.241,5.789,4.489,8.688,6.728,3.206,2.477,6.412,4.953,9.618,7.43,3.239,2.502,6.479,5.005,9.718,7.507,2.415,1.865,4.829,3.731,7.244,5.596.763.59,1.526,1.179,2.29,1.769l-50.085,29.05s-50.561-29.05-50.561-29.05Z"/>
        <path class="cls-1" d="m149.677,314.111c10.002-7.618,20.004-15.236,30.006-22.855,4.6-3.322,8.82-7.313,13.949-9.812,7.128-3.276,13.465-1.401,19.134,3.637,2.897,2.241,5.789,4.489,8.688,6.728,8.86,6.845,17.72,13.689,26.58,20.533.763.59,1.526,1.179,2.29,1.769l-50.085,29.05-50.561-29.05h0Z"/>
      </g>
      <g id="sand-top">
        <path class="cls-4" d="m200.069,188.546l-57.569-34.499v-44.614s45.042-6.628,73.072,8.331c28.03,14.959,41.928,1.717,41.928,1.717v34.404l-57.431,34.661Z"/>
        <path class="cls-1" d="m200.069,188.546l-57.569-34.499v-44.614s45.042-6.628,73.072,8.331c28.03,14.959,41.928,1.717,41.928,1.717v34.404l-57.431,34.661h0Z"/>
      </g>
      <g id="sand-line">
        <g>
          <line class="cls-1" x1="200" y1="197.734" x2="200" y2="203.734"/>
          <line class="cls-3" x1="200" y1="215.954" x2="200" y2="283.165"/>
          <line class="cls-1" x1="200" y1="289.275" x2="200" y2="295.275"/>
        </g>
      </g>
    </g>
  </g>
</svg>