<?xml version="1.0" encoding="UTF-8"?>
<svg id="logo" xmlns="http://www.w3.org/2000/svg" viewBox="0 0 400 400">
  <defs>
    <style>
      .cls-1 {
        fill: #fff;
      }

      .cls-2 {
        fill: #ffbb36;
      }

      .cls-3 {
        stroke-width: 2px;
      }

      .cls-3, .cls-4, .cls-5 {
        fill: none;
        stroke-miterlimit: 10;
      }

      .cls-3, .cls-5 {
        stroke: #fff;
      }

      .cls-4 {
        stroke: #ffbb36;
      }
    </style>
  </defs>
  <path id="lock-frame" class="cls-3" d="m347,168.84v142.32c0,28.51-23.33,51.84-51.84,51.84H104.84c-28.51,0-51.84-23.33-51.84-51.84v-142.32c0-26.45,20.08-48.44,45.74-51.47,2-.25,4.04-.37,6.1-.37h190.32c2.06,0,4.1.12,6.1.37,25.66,3.03,45.74,25.02,45.74,51.47Z"/>
  <g id="polygon">
    <polygon id="polygon-big" class="cls-5" points="237.325 245.649 237.325 202.55 200 181 162.675 202.55 162.675 245.649 200 267.199 237.325 245.649"/>
    <polygon id="polygon-small-bottom" class="cls-5" points="218.471 256.325 218.471 234.863 199.884 224.132 181.298 234.863 181.298 256.325 199.884 267.056 218.471 256.325"/>
    <polygon id="polygon-small-top" class="cls-5" points="218.587 213.222 218.587 191.76 200 181.029 181.413 191.76 181.413 213.222 200 223.953 218.587 213.222"/>
  </g>
  <path id="duga-closed" class="cls-1" d="m301.26,117.37c-2-.25-4.04-.37-6.1-.37h-3.16c-20.94-44.18-53-72.99-92-72.99s-70.06,28.81-91,72.99h-4.16c-2.06,0-4.1.12-6.1.37,21.45-49.87,58.79-82.87,101.26-82.87s79.81,33,101.26,82.87Z"/>
  <g id="text">
    <path class="cls-1" d="m101.677,326.925c.05,6.451,3.3,10.451,8.101,10.451,4.7,0,6.3-2.65,7.2-4.7h2.55c-1.05,3.3-3.7,7.05-9.851,7.05-7.601,0-10.551-6.55-10.551-12.9,0-7.15,3.55-13.301,10.851-13.301,7.701,0,10.151,6.65,10.151,11.351,0,.7,0,1.4-.05,2.05h-18.401Zm15.851-2.2c-.05-4.95-2.75-8.85-7.651-8.85-5.15,0-7.5,3.6-8.05,8.85h15.701Z"/>
    <path class="cls-1" d="m128.227,304.124h2.7v15.251h21.001v-15.251h2.7v35.002h-2.7v-17.251h-21.001v17.251h-2.7v-35.002Z"/>
    <path class="cls-1" d="m165.377,326.925c.05,6.451,3.3,10.451,8.101,10.451,4.7,0,6.3-2.65,7.2-4.7h2.55c-1.05,3.3-3.7,7.05-9.85,7.05-7.601,0-10.551-6.55-10.551-12.9,0-7.15,3.55-13.301,10.851-13.301,7.701,0,10.151,6.65,10.151,11.351,0,.7,0,1.4-.05,2.05h-18.401Zm15.851-2.2c-.05-4.95-2.75-8.85-7.65-8.85-5.15,0-7.5,3.6-8.05,8.85h15.701Z"/>
    <path class="cls-1" d="m191.127,320.925c0-4.2-.051-6-.051-6.801h2.45c.051.801.101,2.4.101,5.601,1.45-3.75,4.65-6,8.7-6.2v2.7c-5.2.35-8.7,3.95-8.7,9.9v13.001h-2.5v-18.201Z"/>
    <path class="cls-1" d="m208.127,302.273h2.5v4.851h-2.5v-4.851Zm0,11.851h2.5v25.002h-2.5v-25.002Z"/>
    <path class="cls-1" d="m216.625,314.124h4.65v-7.8h2.5v7.8h5.951v2.351h-5.951v16.251c0,2.8.601,4.4,3.001,4.4.75,0,1.8-.05,2.6-.3v2.2c-.85.35-2.05.449-3.1.449-3.2,0-5.001-1.6-5.001-5.6v-17.401h-4.65v-2.351Z"/>
    <path class="cls-1" d="m253.176,334.376c0,2.2.2,3.95.351,4.75h-2.4c-.2-.6-.35-1.7-.45-3.851-.85,1.851-3.05,4.45-8.2,4.45-5.801,0-8.301-3.75-8.301-7.5,0-5.5,4.25-8.001,11.751-8.001h4.75v-2.55c0-2.5-.75-5.851-6.45-5.851-5.051,0-5.801,2.65-6.351,4.7h-2.5c.3-2.75,2-7,8.9-7,5.7,0,8.9,2.4,8.9,7.9v12.951Zm-2.45-8.001h-4.9c-5.55,0-9,1.45-9,5.751,0,3.149,2.25,5.3,5.75,5.3,7.15,0,8.15-4.75,8.15-10.15v-.9Z"/>
    <path class="cls-1" d="m281.726,337.426c0,8.001-3.55,12.201-10.801,12.201-6.5,0-9.2-3.65-9.8-7.451h2.55c.9,3.45,3.75,5.101,7.351,5.101,6.5,0,8.301-4.2,8.301-10.551v-2.6c-1.351,3.25-3.801,5-8.351,5-5.851,0-10.351-4.75-10.351-12.501,0-8.4,4.8-13.101,10.7-13.101,5.101,0,7.301,2.4,8.001,4.4.05-1.45.1-3.2.149-3.801h2.351c0,.9-.101,4.851-.101,7.251v16.051Zm-18.451-10.9c0,5.95,3.15,10.25,7.951,10.25,6.25,0,8.15-4.149,8.15-10.65,0-6.601-2-10.25-8.001-10.25-5.75,0-8.101,4.95-8.101,10.65Z"/>
    <path class="cls-1" d="m291.674,326.925c.05,6.451,3.3,10.451,8.101,10.451,4.7,0,6.3-2.65,7.2-4.7h2.55c-1.05,3.3-3.7,7.05-9.851,7.05-7.6,0-10.55-6.55-10.55-12.9,0-7.15,3.55-13.301,10.851-13.301,7.7,0,10.15,6.65,10.15,11.351,0,.7,0,1.4-.05,2.05h-18.401Zm15.851-2.2c-.05-4.95-2.75-8.85-7.65-8.85-5.15,0-7.5,3.6-8.05,8.85h15.7Z"/>
  </g>
  <path id="duga-open" class="cls-1" d="m200,34.5c-42.47,0-79.81,33-101.26,82.87,2-.25,4.04-.37,6.1-.37h4.16c20.94-44.18,52-72.99,91-72.99,26.406,0,49.628,13.21,68.373,35.453l6.008,2.489-1.214,3.531c.37.49.742.977,1.109,1.474l10.589.051c-21.774-32.459-51.761-52.508-84.864-52.508Z"/>
  <path id="sand-bottom" class="cls-2" d="m186.041,257.504l.852-.649,2.102-1.601,2.679-2.041,2.582-1.967c.603-.46,1.202-.927,1.811-1.379.644-.478,1.269-.983,2.008-1.307.544-.239,1.126-.401,1.72-.443.786-.055,1.563.151,2.254.533.456.252.854.588,1.265.905.793.614,1.585,1.229,2.379,1.842l2.633,2.034,2.661,2.055,1.983,1.532c.209.161.418.323.627.484l-13.713,7.954s-13.843-7.954-13.843-7.954Z"/>
  <path id="sand-top" class="cls-2" d="m200.021,222.79l-17.543-10.096v-13.056s13.726-1.94,22.268,2.438c8.542,4.378,12.777.502,12.777.502v10.068l-17.501,10.143Z"/>
  <line id="sand-line" class="cls-4" x1="200.021" y1="222.122" x2="200.021" y2="248.2"/>
</svg>