<?xml version="1.0" encoding="UTF-8"?>
<svg xmlns="http://www.w3.org/2000/svg" viewBox="0 0 400 400">
  <defs>
    <style>
      .cls-1, .cls-2, .cls-3, .cls-4, .cls-5 {
        stroke-miterlimit: 10;
      }

      .cls-1, .cls-2, .cls-4, .cls-5 {
        fill: none;
        stroke: #fff;
      }

      .cls-1, .cls-4 {
        stroke-width: 6px;
      }

      .cls-2 {
        stroke-width: 15px;
      }

      .cls-6 {
        fill: #fff;
      }

      .cls-3 {
        fill: #17202d;
        stroke: #000;
      }

      .cls-4 {
        stroke-dasharray: 0 0 12.22 12.22;
      }

      .cls-5 {
        stroke-width: .25px;
      }
    </style>
  </defs>
  <g id="Background">
    <rect class="cls-3" width="400" height="400"/>
    <g id="Grid">
      <rect class="cls-5" x=".5" y=".5" width="400" height="400"/>
      <line class="cls-5" x1=".5" y1="390.5" x2="400.5" y2="390.5"/>
      <line class="cls-5" x1=".5" y1="380.5" x2="400.5" y2="380.5"/>
      <line class="cls-5" x1=".5" y1="370.5" x2="400.5" y2="370.5"/>
      <line class="cls-5" x1=".5" y1="360.5" x2="400.5" y2="360.5"/>
      <line class="cls-5" x1=".5" y1="350.5" x2="400.5" y2="350.5"/>
      <line class="cls-5" x1=".5" y1="340.5" x2="400.5" y2="340.5"/>
      <line class="cls-5" x1=".5" y1="330.5" x2="400.5" y2="330.5"/>
      <line class="cls-5" x1=".5" y1="320.5" x2="400.5" y2="320.5"/>
      <line class="cls-5" x1=".5" y1="310.5" x2="400.5" y2="310.5"/>
      <line class="cls-5" x1=".5" y1="300.5" x2="400.5" y2="300.5"/>
      <line class="cls-5" x1=".5" y1="290.5" x2="400.5" y2="290.5"/>
      <line class="cls-5" x1=".5" y1="280.5" x2="400.5" y2="280.5"/>
      <line class="cls-5" x1=".5" y1="270.5" x2="400.5" y2="270.5"/>
      <line class="cls-5" x1=".5" y1="260.5" x2="400.5" y2="260.5"/>
      <line class="cls-5" x1=".5" y1="250.5" x2="400.5" y2="250.5"/>
      <line class="cls-5" x1=".5" y1="240.5" x2="400.5" y2="240.5"/>
      <line class="cls-5" x1=".5" y1="230.5" x2="400.5" y2="230.5"/>
      <line class="cls-5" x1=".5" y1="220.5" x2="400.5" y2="220.5"/>
      <line class="cls-5" x1=".5" y1="210.5" x2="400.5" y2="210.5"/>
      <line class="cls-5" x1=".5" y1="200.5" x2="400.5" y2="200.5"/>
      <line class="cls-5" x1=".5" y1="190.5" x2="400.5" y2="190.5"/>
      <line class="cls-5" x1=".5" y1="180.5" x2="400.5" y2="180.5"/>
      <line class="cls-5" x1=".5" y1="170.5" x2="400.5" y2="170.5"/>
      <line class="cls-5" x1=".5" y1="160.5" x2="400.5" y2="160.5"/>
      <line class="cls-5" x1=".5" y1="150.5" x2="400.5" y2="150.5"/>
      <line class="cls-5" x1=".5" y1="140.5" x2="400.5" y2="140.5"/>
      <line class="cls-5" x1=".5" y1="130.5" x2="400.5" y2="130.5"/>
      <line class="cls-5" x1=".5" y1="120.5" x2="400.5" y2="120.5"/>
      <line class="cls-5" x1=".5" y1="110.5" x2="400.5" y2="110.5"/>
      <line class="cls-5" x1=".5" y1="100.5" x2="400.5" y2="100.5"/>
      <line class="cls-5" x1=".5" y1="90.5" x2="400.5" y2="90.5"/>
      <line class="cls-5" x1=".5" y1="80.5" x2="400.5" y2="80.5"/>
      <line class="cls-5" x1=".5" y1="70.5" x2="400.5" y2="70.5"/>
      <line class="cls-5" x1=".5" y1="60.5" x2="400.5" y2="60.5"/>
      <line class="cls-5" x1=".5" y1="50.5" x2="400.5" y2="50.5"/>
      <line class="cls-5" x1=".5" y1="40.5" x2="400.5" y2="40.5"/>
      <line class="cls-5" x1=".5" y1="30.5" x2="400.5" y2="30.5"/>
      <line class="cls-5" x1=".5" y1="20.5" x2="400.5" y2="20.5"/>
      <line class="cls-5" x1=".5" y1="10.5" x2="400.5" y2="10.5"/>
      <line class="cls-5" x1="390.5" y1=".5" x2="390.5" y2="400.5"/>
      <line class="cls-5" x1="380.5" y1=".5" x2="380.5" y2="400.5"/>
      <line class="cls-5" x1="370.5" y1=".5" x2="370.5" y2="400.5"/>
      <line class="cls-5" x1="360.5" y1=".5" x2="360.5" y2="400.5"/>
      <line class="cls-5" x1="350.5" y1=".5" x2="350.5" y2="400.5"/>
      <line class="cls-5" x1="340.5" y1=".5" x2="340.5" y2="400.5"/>
      <line class="cls-5" x1="330.5" y1=".5" x2="330.5" y2="400.5"/>
      <line class="cls-5" x1="320.5" y1=".5" x2="320.5" y2="400.5"/>
      <line class="cls-5" x1="310.5" y1=".5" x2="310.5" y2="400.5"/>
      <line class="cls-5" x1="300.5" y1=".5" x2="300.5" y2="400.5"/>
      <line class="cls-5" x1="290.5" y1=".5" x2="290.5" y2="400.5"/>
      <line class="cls-5" x1="280.5" y1=".5" x2="280.5" y2="400.5"/>
      <line class="cls-5" x1="270.5" y1=".5" x2="270.5" y2="400.5"/>
      <line class="cls-5" x1="260.5" y1=".5" x2="260.5" y2="400.5"/>
      <line class="cls-5" x1="250.5" y1=".5" x2="250.5" y2="400.5"/>
      <line class="cls-5" x1="240.5" y1=".5" x2="240.5" y2="400.5"/>
      <line class="cls-5" x1="230.5" y1=".5" x2="230.5" y2="400.5"/>
      <line class="cls-5" x1="220.5" y1=".5" x2="220.5" y2="400.5"/>
      <line class="cls-5" x1="210.5" y1=".5" x2="210.5" y2="400.5"/>
      <line class="cls-5" x1="200.5" y1=".5" x2="200.5" y2="400.5"/>
      <line class="cls-5" x1="190.5" y1=".5" x2="190.5" y2="400.5"/>
      <line class="cls-5" x1="180.5" y1=".5" x2="180.5" y2="400.5"/>
      <line class="cls-5" x1="170.5" y1=".5" x2="170.5" y2="400.5"/>
      <line class="cls-5" x1="160.5" y1=".5" x2="160.5" y2="400.5"/>
      <line class="cls-5" x1="150.5" y1=".5" x2="150.5" y2="400.5"/>
      <line class="cls-5" x1="140.5" y1=".5" x2="140.5" y2="400.5"/>
      <line class="cls-5" x1="130.5" y1=".5" x2="130.5" y2="400.5"/>
      <line class="cls-5" x1="120.5" y1=".5" x2="120.5" y2="400.5"/>
      <line class="cls-5" x1="110.5" y1=".5" x2="110.5" y2="400.5"/>
      <line class="cls-5" x1="100.5" y1=".5" x2="100.5" y2="400.5"/>
      <line class="cls-5" x1="90.5" y1=".5" x2="90.5" y2="400.5"/>
      <line class="cls-5" x1="80.5" y1=".5" x2="80.5" y2="400.5"/>
      <line class="cls-5" x1="70.5" y1=".5" x2="70.5" y2="400.5"/>
      <line class="cls-5" x1="60.5" y1=".5" x2="60.5" y2="400.5"/>
      <line class="cls-5" x1="50.5" y1=".5" x2="50.5" y2="400.5"/>
      <line class="cls-5" x1="40.5" y1=".5" x2="40.5" y2="400.5"/>
      <line class="cls-5" x1="30.5" y1=".5" x2="30.5" y2="400.5"/>
      <line class="cls-5" x1="20.5" y1=".5" x2="20.5" y2="400.5"/>
      <line class="cls-5" x1="10.5" y1=".5" x2="10.5" y2="400.5"/>
    </g>
  </g>
  <g id="favicon-thick-lines">
    <g id="hexagon">
      <g id="polygon">
        <polygon id="polygon-big-outer" class="cls-2" points="338 279.674 338 120.326 200 40.65 62 120.326 62 279.674 200 359.35 338 279.674"/>
        <polygon id="polygon-big-inner" class="cls-1" points="336.327 278.708 336.327 121.292 200 42.582 63.673 121.292 63.673 278.708 200 357.418 336.327 278.708"/>
        <polygon id="polygon-small-bottom" class="cls-1" points="267.886 317.702 267.886 239.313 199.998 200.119 132.114 239.313 132.114 317.702 199.998 356.896 267.886 317.702"/>
        <polygon id="polygon-small-top" class="cls-1" points="267.888 160.271 267.888 81.882 200 42.688 132.112 81.882 132.112 160.271 200 199.465 267.888 160.271"/>
      </g>
      <g id="sand">
        <g id="sand-bottom">
          <path class="cls-6" d="m150,306.221l3.09-2.017c2.543-1.66,5.086-3.32,7.63-4.98,3.241-2.116,6.482-4.231,9.723-6.347,3.123-2.039,6.247-4.078,9.37-6.117,2.19-1.43,4.361-2.884,6.572-4.29,2.336-1.486,4.605-3.056,7.287-4.065,1.975-.743,4.086-1.247,6.242-1.377,2.852-.172,5.671.471,8.18,1.657,1.655.783,3.098,1.828,4.589,2.816,2.878,1.909,5.752,3.822,8.632,5.729,3.185,2.109,6.371,4.218,9.556,6.327,3.219,2.131,6.437,4.262,9.656,6.393l7.197,4.765c.758.502,1.517,1.004,2.275,1.506l-50,28.779s-50-28.779-50-28.779Z"/>
          <path class="cls-1" d="m150,306.221c9.938-6.487,19.875-12.974,29.813-19.461,4.608-2.856,8.799-6.246,13.859-8.355,4.556-1.816,10.004-1.944,14.422.28,4.624,2.525,8.773,5.737,13.221,8.545,9.561,6.33,19.123,12.661,28.684,18.991,0,0-50,28.779-50,28.779l-50-28.779h0Z"/>
        </g>
        <g id="sand-top">
          <path class="cls-6" d="m200.06,182l-50.06-30.503v-39.446s39.167-5.86,63.541,7.366c24.374,13.226,36.459,1.518,36.459,1.518v30.419l-49.94,30.646Z"/>
          <path class="cls-1" d="m200.06,182l-50.06-30.503v-39.446s39.167-5.86,63.541,7.366c24.374,13.226,36.459,1.518,36.459,1.518v30.419l-49.94,30.646h0Z"/>
        </g>
        <g id="sand-line">
          <g>
            <line class="cls-1" x1="200" y1="197.734" x2="200" y2="203.734"/>
            <line class="cls-4" x1="200" y1="215.954" x2="200" y2="283.165"/>
            <line class="cls-1" x1="200" y1="289.275" x2="200" y2="295.275"/>
          </g>
        </g>
      </g>
    </g>
  </g>
</svg>