<?xml version="1.0" encoding="UTF-8"?>
<svg id="logo" xmlns="http://www.w3.org/2000/svg" viewBox="0 0 400 400">
  <defs>
    <style>
      .cls-1 {
        fill: #fff;
      }

      .cls-2 {
        fill: none;
        stroke: #fff;
        stroke-miterlimit: 10;
      }
    </style>
  </defs>
  <path id="lock" class="cls-2" d="m347,168.84v142.32c0,28.51-23.33,51.84-51.84,51.84H104.84c-28.51,0-51.84-23.33-51.84-51.84v-142.32c0-26.45,20.08-48.44,45.74-51.47,2-.25,4.04-.37,6.1-.37h190.32c2.06,0,4.1.12,6.1.37,25.66,3.03,45.74,25.02,45.74,51.47Z"/>
  <polygon id="polygon-big" class="cls-2" points="237.325 262.649 237.325 219.55 200 198 162.675 219.55 162.675 262.649 200 284.199 237.325 262.649"/>
  <polygon id="polygon-small-bottom" class="cls-2" points="218.471 273.325 218.471 251.863 199.884 241.132 181.298 251.863 181.298 273.325 199.884 284.056 218.471 273.325"/>
  <polygon id="polygon-small-top" class="cls-2" points="218.587 230.222 218.587 208.76 200 198.029 181.413 208.76 181.413 230.222 200 240.953 218.587 230.222"/>
  <path id="duga" class="cls-1" d="m301.26,117.37c-2-.25-4.04-.37-6.1-.37h-3.16c-20.94-44.18-53-72.99-92-72.99s-70.06,28.81-91,72.99h-4.16c-2.06,0-4.1.12-6.1.37,21.45-49.87,58.79-82.87,101.26-82.87s79.81,33,101.26,82.87Z"/>
</svg>