<?xml version="1.0" standalone="no"?>
<!DOCTYPE svg PUBLIC "-//W3C//DTD SVG 20010904//EN" "http://www.w3.org/TR/2001/REC-SVG-20010904/DTD/svg10.dtd">
<svg version="1.0" xmlns="http://www.w3.org/2000/svg"
    width="1667.000000pt" height="1667.000000pt" viewBox="0 0 1667.000000 1667.000000"
    preserveAspectRatio="xMidYMid meet">
    <g transform="translate(0.000000,1667.000000) scale(0.100000,-0.100000)"
        fill="#000000" stroke="none">
        <path
            d="M5135 13877 l-3190 -1843 -3 -3696 -2 -3696 3192 -1843 c1755 -1013
3196 -1842 3202 -1842 6 0 1448 830 3204 1844 l3192 1843 -2 3694 -3 3694
-3194 1844 c-1756 1014 -3196 1844 -3200 1844 -3 -1 -1441 -830 -3196 -1843z
m6150 -443 l2930 -1692 3 -3404 2 -3404 -2942 -1698 -2941 -1698 -41 20 c-23
12 -1348 776 -2946 1699 l-2905 1678 -3 3396 c-2 3048 0 3398 13 3409 42 35
5881 3398 5890 3392 5 -4 1329 -768 2940 -1698z" />
        <path
            d="M7022 13892 l-1312 -757 0 -1510 0 -1510 1307 -754 c719 -415 1311
-754 1317 -754 6 0 596 338 1311 751 l1300 751 0 1516 0 1516 -1290 745 c-709
410 -1297 749 -1306 754 -12 7 -347 -182 -1327 -748z" />
        <path
            d="M11368 11385 l-3 -1518 -1317 -760 c-725 -419 -1318 -764 -1318 -767
0 -3 588 -345 1308 -760 l1307 -755 3 -1529 c2 -1420 3 -1528 19 -1522 9 4
560 320 1225 704 l1208 697 0 3161 0 3161 -1192 689 c-656 378 -1203 694
-1215 702 l-23 14 -2 -1517z" />
        <path
            d="M4068 12192 l-1208 -697 3 -3159 2 -3159 1200 -693 c660 -382 1203
-694 1207 -694 5 0 9 683 10 1517 l3 1517 1317 760 c725 419 1318 763 1318
766 0 3 -592 347 -1315 765 l-1315 759 0 1508 c0 829 -3 1508 -7 1508 -5 -1
-551 -315 -1215 -698z" />
        <path
            d="M7009 7335 l-1304 -753 0 -1516 0 -1517 1290 -745 c710 -410 1297
-749 1305 -754 12 -6 370 196 1320 745 l1305 753 0 1518 0 1517 -1270 734
c-698 404 -1286 742 -1306 753 l-35 18 -1305 -753z" />
    </g>
</svg>